<svg xmlns="http://www.w3.org/2000/svg" viewBox="0 0 302 83"><path d="M29.7 50.6c0-7.5-5.6-10.7-12.3-13.3-5.2-2-8.8-4.1-8.8-8.3 0-3.9 2.4-5.7 5.6-5.7 2.6 0 5.3 1.2 7.5 3.2 2.2 2.1 3.9 5.2 4.5 8.4h.6L26.3 23H26l-2.4 2.5h-.3c-1.6-1.8-6.1-3.2-9.3-3.2-8.5 0-14 5.5-14 12.1 0 8 6.3 11.5 11.7 13.8 5.5 2.4 9.3 4.7 9.3 8.5 0 4.7-1.6 6.3-6 6.3C8.7 63 1.8 56.4.5 48.4H0L.4 63h.4L4 60.1h.4c2.7 2.3 7.5 3.7 10.8 3.7 7.7-.1 14.5-4.8 14.5-13.2zm46.8-7.5c0 12.9-7.5 20.7-17.7 20.7-4.4 0-7.3-1-9.8-3.2h-.3v10c0 2.6-.1 5.4.4 7.4.6 2.5 1.3 2.9 3.2 3.8.7.3 1.3.3 1.9.4v.5H32v-.5c.6-.1 1.2-.1 1.9-.4 1.9-.8 2.7-1.3 3.2-3.8.5-1.9.4-4.8.4-7.4V34.3c0-1.7 0-4.9-.2-6.3-.2-1.7-.6-2.2-1.7-3.1-1.1-.9-3.3-1.3-4.1-1.4v-.4h16.4c.4 0 .7.2.7.8l-.1 5.9h.5c1.7-4.7 6.5-7.5 10.8-7.5 9.2 0 16.7 6.7 16.7 20.8zm-12.1-.4c0-14.7-2.5-18.2-7.2-18.2-4.8 0-8.5 5.8-8.5 13.2v11.1c0 4 1 8.5 2.7 10.4 1.7 1.9 3.4 3 5.9 3 4.7.1 7.1-4.8 7.1-19.5zm36.9 20.2v-.5c-.6-.1-1.6-.1-2.2-.4-1.5-.6-2.3-1.1-2.9-3.5-.4-1.7-.4-5.1-.4-7.7V6.4c0-2.5.1-4.4.1-5.8 0-.5-.2-.6-.6-.6H79.6v.5c.9.1 2.1.1 3 .8.8.6 1.3 1.3 1.6 3 .3 1.5.3 5.4.3 7.1v39.5c0 2.7 0 6.1-.5 7.7-.6 2.4-1.4 2.9-2.9 3.5-.7.3-1.4.3-2 .4v.5l22.2-.1zm38.6-22H116c0 10.5 1.8 15.3 4.2 18 1.5 1.6 3.8 2.4 6.1 2.4 7.3 0 10.7-6 12.2-11.5l1 .3c-1.7 7.7-7.2 13.6-16.1 13.6-4.5 0-9.4-1.1-13-4.2-4.2-3.7-6.6-8.8-6.6-16.4 0-13.6 9.1-20.9 18.9-20.9 11.8 0 17.2 8 17.2 16.2.1.7.1 1.8 0 2.5zm-10.7-4.8c0-5.2-.7-9.1-2.4-11.1-1-1.1-2.4-1.6-3.9-1.6-1.6 0-2.8.5-4 1.7-1.7 1.9-2.8 6.6-3 14.6h10.3c2.3-.1 3-.8 3-3.6zm40.2 20.8c-1.3 2.1-3.6 3.3-6.1 3.3-3.9 0-4.8-2.7-4.8-6l.4-29.5h8.7V23h-8.7V6.9h-1.2c-2.9 10.3-8 15.3-15.5 16.8v.7c1.4.2 3.9.1 5.3.3-.1 4.5-.4 26.4-.4 28.2 0 3.6.7 6.1 3 8.1 1.9 1.7 5 2.7 8.8 2.7 5.4 0 9.6-3.7 10.8-6.4l-.3-.4zm47.6 6v-.4c-.6-.1-1.4-.2-2.1-.5-1.5-.6-2.2-1.1-2.9-3.5-.4-1.7-.4-5.1-.4-7.7V35c0-4.4-1.2-7.5-2.5-9.4-1.8-2.6-4.7-3.4-8.9-3.4-2.4 0-6 .9-8.2 2.6-1.8 1.5-3.8 3.6-4.8 7.3h-.2c0-1 .2-7.8.2-8.5 0-.4-.2-.6-.6-.6H171v.5c.8.1 2 .1 2.9.8.8.6 1.4 1.3 1.7 3 .2 1.5.2 5.3.2 7v16.5c0 2.7.1 6.2-.4 7.8-.6 2.4-1.4 2.8-2.9 3.4-.7.3-1.6.4-2.1.5v.4H192v-.4c-.6-.1-1.3-.2-2-.5-1.7-.7-2.2-1.5-2.7-3.8-.4-1.7-.4-4-.4-6.4V43c0-2.8.2-5.1.4-7.3.6-7.5 5.1-10.5 7.6-10.5 2.1 0 3.2.6 4 1.7 1 1.2 1.3 2.9 1.3 6.4v18.5c0 2.4-.1 4.7-.4 6.3-.5 2.4-1.1 3.1-2.7 3.9-.7.3-1.3.4-2 .5v.4H217zm23.6 0v-.4c-.6-.1-1.4-.1-2.1-.4-1.5-.6-2.3-1.1-2.9-3.5-.4-1.3-.4-4.1-.4-6.3V29.4c0-2.4.1-4.3.1-5.7 0-.5-.2-.6-.6-.6h-15.6v.5c.9.1 2.1.2 3 .8.8.6 1.4 1.3 1.7 3 .2 1.5.2 5.3.2 7v17.9c0 2.2-.1 5.1-.5 6.3-.6 2.4-1.4 2.9-2.8 3.5-.7.3-1.5.3-2.1.4v.4h22zm-4.8-54.4c0-3.7-3.1-6.2-6.3-6.2-3.1 0-6.1 2.7-6.1 6.2s2.9 6 6.1 6c3.3-.1 6.3-2.4 6.3-6zM258.3 0h-15.7v.5c.8.1 2.1.1 3 .8.8.6 1.3 1.3 1.6 3 .2 1.5.3 5.3.3 7v39.6c0 2.6 0 6.1-.5 7.7-.6 2.4-1.3 2.9-2.9 3.5-.7.3-1.4.3-2 .4v.5h22.2v-.5c-.6-.1-1.6-.1-2.3-.4-1.6-.6-2.3-1.1-2.9-3.5-.4-1.7-.5-5.2-.5-7.7v-5.1l4-4c2.9 1.5 4.1 4 5.2 9.8.7 5.1 2.7 10.2 4.5 11.4h15v-.5c-2.3-.3-3.5-.8-4.5-2-1.7-1.9-3.5-8.4-4.3-12.6-1.2-6.1-4.2-10.8-9.6-12.2l2.8-2.9c2.6-2.8 6.9-6.3 7.9-6.9 2.1-1.3 4.1-2 5.7-2.3v-.5h-17.1v.5c.8.1 2.4.5 3.1.8 1.3.6 1.5 1.6 1.5 2.7 0 1.7-1.6 4.2-4 6.8l-10 10.1V8.2c0-4 .2-6.7.2-7.5-.2-.5-.4-.7-.7-.7zM287 53.7l3.6-3.7h7.1l3.6 3.7-7.2 9.3-7.1-9.3z"/></svg>